<?xml version="1.0" encoding="UTF-8"?>
<svg version="1.1" xmlns="http://www.w3.org/2000/svg" width="65" height="65">
<path d="M0 0 C0.85658203 0.28617188 1.71316406 0.57234375 2.59570312 0.8671875 C4.67293943 1.56346783 6.74350371 2.27960337 8.8125 3 C8.4825 3.99 8.1525 4.98 7.8125 6 C7.1525 6 6.4925 6 5.8125 6 C5.4825 7.98 5.1525 9.96 4.8125 12 C7.2875 12.495 7.2875 12.495 9.8125 13 C9.8125 13.66 9.8125 14.32 9.8125 15 C8.8225 15 7.8325 15 6.8125 15 C7.3075 15.99 7.3075 15.99 7.8125 17 C7.72469597 19.04498425 7.57008462 21.08744948 7.375 23.125 C7.27316406 24.22070312 7.17132813 25.31640625 7.06640625 26.4453125 C6.98261719 27.28835937 6.89882813 28.13140625 6.8125 29 C5.8225 29.33 4.8325 29.66 3.8125 30 C3.8125 31.65 3.8125 33.3 3.8125 35 C5.1325 35.66 6.4525 36.32 7.8125 37 C7.8125 37.66 7.8125 38.32 7.8125 39 C3.28242813 40.17744319 -1.25227153 41.33419655 -5.79223633 42.47290039 C-7.33270155 42.86224874 -8.87181135 43.25700457 -10.40942383 43.6574707 C-23.46017151 47.05041095 -31.94736054 47.17563309 -44.6875 42.5625 C-46.04488281 42.09360352 -46.04488281 42.09360352 -47.4296875 41.61523438 C-54.05648819 39.26202362 -54.05648819 39.26202362 -55.1875 37 C-55.25815617 34.95944995 -55.27171976 32.91665743 -55.25 30.875 C-55.24097656 29.77929688 -55.23195312 28.68359375 -55.22265625 27.5546875 C-55.21105469 26.71164063 -55.19945312 25.86859375 -55.1875 25 C-53.8675 24.67 -52.5475 24.34 -51.1875 24 C-51.5175 23.0925 -51.8475 22.185 -52.1875 21.25 C-53.1875 18 -53.1875 18 -53.1875 14 C-53.39375 12.865625 -53.6 11.73125 -53.8125 10.5625 C-54.40026596 4.9787234 -54.40026596 4.9787234 -52.1875 2 C-45.88552164 -0.14503544 -38.883097 -0.72692677 -32.3125 -1.625 C-30.93771484 -1.82609375 -30.93771484 -1.82609375 -29.53515625 -2.03125 C-18.97175005 -3.48724692 -10.12650888 -3.55991286 0 0 Z M-50.1875 5 C-51.04558471 7.40263719 -51.3267508 8.60777846 -50.46044922 11.04785156 C-48.88455803 13.46458074 -47.9498538 13.76128473 -45.1953125 14.484375 C-44.40769531 14.69707031 -43.62007812 14.90976562 -42.80859375 15.12890625 C-41.98488281 15.33386719 -41.16117188 15.53882813 -40.3125 15.75 C-39.49652344 15.97042969 -38.68054687 16.19085938 -37.83984375 16.41796875 C-34.088268 17.40329289 -31.11299536 18 -27.1875 18 C-26.8575 16.02 -26.5275 14.04 -26.1875 12 C-29.81100621 10.82865778 -33.43653999 9.66372198 -37.0625 8.5 C-38.61130859 7.99919922 -38.61130859 7.99919922 -40.19140625 7.48828125 C-41.67060547 7.01455078 -41.67060547 7.01455078 -43.1796875 6.53125 C-44.09089355 6.23798828 -45.00209961 5.94472656 -45.94091797 5.64257812 C-48.1185363 4.9083343 -48.1185363 4.9083343 -50.1875 5 Z M-5.73046875 8.09375 C-6.80361328 8.31933594 -7.87675781 8.54492188 -8.98242188 8.77734375 C-10.10197266 9.01582031 -11.22152344 9.25429688 -12.375 9.5 C-14.07172852 9.85771484 -14.07172852 9.85771484 -15.80273438 10.22265625 C-18.59823439 10.81242419 -21.39311433 11.40497847 -24.1875 12 C-24.1875 13.98 -24.1875 15.96 -24.1875 18 C-18.03264112 17.5523739 -12.18312955 16.40631261 -6.1875 15 C-5.42123291 14.82178711 -4.65496582 14.64357422 -3.86547852 14.45996094 C-0.22819059 13.83725493 -0.22819059 13.83725493 2.8125 12 C2.85313832 10.33382885 2.855221 8.66611905 2.8125 7 C-0.23235686 7 -2.75530617 7.46408596 -5.73046875 8.09375 Z M-4.07421875 18.53125 C-5.01201172 18.84707031 -5.94980469 19.16289062 -6.91601562 19.48828125 C-7.89248047 19.82214844 -8.86894531 20.15601563 -9.875 20.5 C-10.86306641 20.83386719 -11.85113281 21.16773438 -12.86914062 21.51171875 C-15.30998825 22.33712616 -17.74933789 23.16670008 -20.1875 24 C-19.8575 25.98 -19.5275 27.96 -19.1875 30 C-11.66155131 29.39792411 -4.24729904 27.68680016 2.8125 25 C5.14641203 22.21885944 5.14641203 22.21885944 4.4375 19.3125 C4.23125 18.549375 4.025 17.78625 3.8125 17 C0.73358274 17 -1.17893621 17.54860865 -4.07421875 18.53125 Z M-49.1875 19 C-49.1875 20.65 -49.1875 22.3 -49.1875 24 C-44.18941572 25.34063198 -39.18904463 26.67233567 -34.1875 28 C-33.31738281 28.23460937 -32.44726562 28.46921875 -31.55078125 28.7109375 C-28.26365253 29.57498276 -25.6238091 30 -22.1875 30 C-22.1875 28.02 -22.1875 26.04 -22.1875 24 C-25.93600603 23.15984843 -29.68652832 22.32906781 -33.4375 21.5 C-34.50097656 21.26152344 -35.56445312 21.02304687 -36.66015625 20.77734375 C-37.68496094 20.55175781 -38.70976563 20.32617188 -39.765625 20.09375 C-40.70825195 19.88427734 -41.65087891 19.67480469 -42.62207031 19.45898438 C-45.40938558 18.8825901 -45.40938558 18.8825901 -49.1875 19 Z M-52.1875 29 C-52.1875 31.31 -52.1875 33.62 -52.1875 36 C-47.43480245 37.61867236 -42.66794438 39.19193043 -37.875 40.6875 C-36.67423828 41.06455078 -36.67423828 41.06455078 -35.44921875 41.44921875 C-32.92773277 42.15773899 -32.92773277 42.15773899 -29.1875 42 C-28.8575 40.02 -28.5275 38.04 -28.1875 36 C-31.62253772 34.82599412 -35.06090714 33.66206791 -38.5 32.5 C-39.96469727 31.99919922 -39.96469727 31.99919922 -41.45898438 31.48828125 C-42.39677734 31.17246094 -43.33457031 30.85664062 -44.30078125 30.53125 C-45.16485596 30.23798828 -46.02893066 29.94472656 -46.91918945 29.64257812 C-49.27564103 28.86372028 -49.27564103 28.86372028 -52.1875 29 Z M-8.609375 32.09375 C-9.63417969 32.31933594 -10.65898438 32.54492188 -11.71484375 32.77734375 C-13.31005859 33.13505859 -13.31005859 33.13505859 -14.9375 33.5 C-16.55591797 33.85771484 -16.55591797 33.85771484 -18.20703125 34.22265625 C-20.8680388 34.81137473 -23.52812563 35.4039552 -26.1875 36 C-26.1875 37.98 -26.1875 39.96 -26.1875 42 C-20.43827626 41.37423415 -14.93037619 40.36011739 -9.3125 39 C-8.55453125 38.82210937 -7.7965625 38.64421875 -7.015625 38.4609375 C-2.99720204 37.5343921 -2.99720204 37.5343921 0.8125 36 C0.8125 34.35 0.8125 32.7 0.8125 31 C-2.65260961 31 -5.26501576 31.35055906 -8.609375 32.09375 Z " fill="#FFFFFF" transform="translate(55.1875,10)"/>
</svg>
